<svg xmlns="http://www.w3.org/2000/svg" width="520" height="520" viewBox="0 0 520 520">
  <g fill="none" stroke="#A78D6F" stroke-opacity=".62" stroke-linecap="round" stroke-linejoin="round">
    <!-- asymmetric broken botanical arch -->
    <path stroke-width="1.3" d="M94 424 C104 250 138 113 272 74 C348 52 426 80 462 134"/>
    <path stroke-width="0.9" d="M112 420 C124 268 157 137 278 93 C344 70 404 86 444 130"/>
    <path stroke-width="0.65" d="M130 412 C150 270 177 170 277 115 C325 89 382 91 421 121"/>

    <!-- roman column left -->
    <path stroke-width="1.2" d="M92 414 L150 414"/>
    <path stroke-width="1.1" d="M101 391 L142 391"/>
    <path stroke-width="1.1" d="M104 202 L139 202"/>
    <path stroke-width="1.1" d="M96 190 L147 190"/>
    <path stroke-width="1.0" d="M101 180 L143 180"/>
    <path stroke-width="1.0" d="M108 202 L108 391"/>
    <path stroke-width="1.0" d="M136 202 L136 391"/>
    <path stroke-width=".55" d="M115 208 C111 265 111 330 116 386"/>
    <path stroke-width=".55" d="M126 208 C123 266 123 329 127 386"/>
    <path stroke-width=".55" d="M133 208 C131 265 131 332 134 386"/>
    <path stroke-width=".8" d="M101 391 C110 398 133 398 142 391"/>
    <path stroke-width=".8" d="M104 202 C112 210 131 210 139 202"/>

    <!-- left climbing botanicals -->
    <path stroke-width=".9" d="M80 410 C68 365 77 316 103 284 C126 255 133 229 126 203"/>
    <path stroke-width=".9" d="M111 398 C88 345 80 284 95 240 C108 203 126 176 156 148"/>
    <path stroke-width=".75" d="M64 392 C87 354 116 338 145 322"/>
    <path stroke-width=".75" d="M77 335 C108 319 133 302 157 276"/>
    <path stroke-width=".75" d="M92 286 C126 265 149 242 165 214"/>
    <path stroke-width=".75" d="M119 228 C150 210 176 187 196 155"/>
    <path stroke-width=".75" d="M152 171 C177 155 208 134 239 104"/>

    <!-- leaves as paired ellipses -->
    <g stroke-width=".55">
      <path d="M83 368 c-12 -10 -21 -9 -27 2 c13 6 21 5 27 -2"/>
      <path d="M93 353 c12 -10 21 -8 26 2 c-13 6 -21 5 -26 -2"/>
      <path d="M95 300 c-13 -8 -22 -6 -27 5 c13 4 21 2 27 -5"/>
      <path d="M115 289 c12 -11 21 -10 27 1 c-12 7 -20 6 -27 -1"/>
      <path d="M122 242 c-13 -9 -22 -8 -28 3 c13 5 21 4 28 -3"/>
      <path d="M145 226 c14 -10 23 -8 27 3 c-14 6 -22 5 -27 -3"/>
      <path d="M160 182 c-12 -9 -21 -8 -26 3 c13 5 20 4 26 -3"/>
      <path d="M184 161 c13 -10 22 -9 27 2 c-13 6 -21 5 -27 -2"/>
      <path d="M217 121 c13 -10 22 -8 27 2 c-13 6 -21 5 -27 -2"/>
      <path d="M248 96 c13 -7 21 -4 25 7 c-13 3 -21 1 -25 -7"/>
    </g>

    <!-- small flowers -->
    <g stroke-width=".55">
      <circle cx="70" cy="382" r="3"/>
      <path d="M70 374 c5 5 5 11 0 16 c-5 -5 -5 -11 0 -16"/>
      <path d="M62 382 c5 -5 11 -5 16 0 c-5 5 -11 5 -16 0"/>
      <circle cx="118" cy="260" r="2.5"/>
      <path d="M118 253 c4 4 4 9 0 13 c-4 -4 -4 -9 0 -13"/>
      <path d="M111 260 c4 -4 9 -4 13 0 c-4 4 -9 4 -13 0"/>
      <circle cx="170" cy="187" r="2.5"/>
      <path d="M170 180 c4 4 4 9 0 13 c-4 -4 -4 -9 0 -13"/>
      <path d="M163 187 c4 -4 9 -4 13 0 c-4 4 -9 4 -13 0"/>
    </g>

    <!-- sparse right plant, deliberately separate -->
    <path stroke-width=".85" d="M405 421 C389 350 405 292 442 240"/>
    <path stroke-width=".7" d="M416 372 C444 351 458 325 462 292"/>
    <path stroke-width=".7" d="M400 350 C378 330 367 306 365 279"/>
    <path stroke-width=".7" d="M430 306 C453 289 465 268 468 242"/>
    <g stroke-width=".55">
      <path d="M418 364 c-12 -9 -21 -7 -27 3 c13 5 21 4 27 -3"/>
      <path d="M432 347 c12 -9 21 -7 26 3 c-12 5 -20 4 -26 -3"/>
      <path d="M399 324 c-12 -8 -20 -6 -25 5 c12 4 20 2 25 -5"/>
      <path d="M445 292 c12 -9 20 -7 24 4 c-12 4 -20 3 -24 -4"/>
      <path d="M459 263 c12 -8 20 -6 23 5 c-12 4 -19 2 -23 -5"/>
    </g>
  </g>
</svg>